<svg xmlns="http://www.w3.org/2000/svg" viewBox="0 0 500 500"><g id="freepik--background-simple--inject-57"><g><path d="M439.27,117.71c-1.56-2.41-3.17-4.77-4.87-7.08-22.51-30.75-60-51.8-96.42-61.33-15.96-4.18-32.34-6.37-48.7-6.93-107.28-3.62-146.69,78.59-181.25,99.78-34.56,21.2-87.61,57.4-80.95,133.45,5.05,57.83,40.45,113.12,105.09,138.28,7.12,2.78,14.6,5.19,22.43,7.19,14.57,3.73,30.36,6.06,47.38,6.77,48.87,2.02,88.56-8.93,127.38-36.5,9.02-6.41,18-13.64,29.71-14.43,8.51-.58,16.58,2.27,7.68,9.91-10.46,8.99,1.61,26.66,28.15,14.38,44.33-20.51,62.57-64.75,71.16-109.74,10.55-55.22,5.43-123.89-26.79-173.76Z" style="fill:#92E3A9;"></path><path d="M439.27,117.71c-1.56-2.41-3.17-4.77-4.87-7.08-22.51-30.75-60-51.8-96.42-61.33-15.96-4.18-32.34-6.37-48.7-6.93-107.28-3.62-146.69,78.59-181.25,99.78-34.56,21.2-87.61,57.4-80.95,133.45,5.05,57.83,40.45,113.12,105.09,138.28,7.12,2.78,14.6,5.19,22.43,7.19,14.57,3.73,30.36,6.06,47.38,6.77,48.87,2.02,88.56-8.93,127.38-36.5,9.02-6.41,18-13.64,29.71-14.43,8.51-.58,16.58,2.27,7.68,9.91-10.46,8.99,1.61,26.66,28.15,14.38,44.33-20.51,62.57-64.75,71.16-109.74,10.55-55.22,5.43-123.89-26.79-173.76Z" style="fill:#fff; opacity:.8;"></path></g></g><g id="freepik--Lines--inject-57"><g><line x1="260" y1="100.73" x2="260" y2="454.83" style="fill:none; stroke:#263238; stroke-linejoin:round;"></line><line x1="260" y1="54.37" x2="260" y2="93.42" style="fill:none; stroke:#263238; stroke-linejoin:round;"></line><line x1="451.13" y1="254.6" x2="460.56" y2="254.6" style="fill:none; stroke:#263238; stroke-linejoin:round;"></line><line x1="185.21" y1="254.6" x2="443.1" y2="254.6" style="fill:none; stroke:#263238; stroke-linejoin:round;"></line><line x1="59.45" y1="254.6" x2="177.17" y2="254.6" style="fill:none; stroke:#263238; stroke-linejoin:round;"></line></g></g><g id="freepik--Circle_4--inject-57"><circle cx="366.79" cy="379.2" r="75.53" style="fill:#263238;"></circle></g><g id="freepik--Circle_3--inject-57"><circle cx="148.66" cy="379.2" r="75.53" style="fill:#263238;"></circle></g><g id="freepik--Circle_2--inject-57"><circle cx="364.19" cy="150.15" r="75.53" transform="translate(.5 301.5) rotate(-45)" style="fill:#263238;"></circle></g><g id="freepik--Circle_1--inject-57"><circle cx="148.66" cy="150.15" r="75.53" transform="translate(-62.63 149.09) rotate(-45)" style="fill:#263238;"></circle></g><g id="freepik--Character_4--inject-57"><g><g><path d="M342.18,298.44s-7.54-.86-11.85-8.62c-4.31-7.76,2.59-14.01,13.79-20.26,11.21-6.25,27.8-8.19,39.87-3.45,12.07,4.74,21.98,20.69,21.77,33.41-.22,12.72-1.51,14.66-2.59,14.23-1.08-.43-2.37-3.66-2.37-3.66,0,0,.86,7.54-.86,12.07-1.72,4.53-3.88,5.82-6.03,5.39-2.16-.43-4.1-4.53-5.6-7.11-1.51-2.59-1.08-6.47-11.85-11.42-10.78-4.96-15.09-7.97-17.24-9.27-2.16-1.29-12.5-4.96-12.5-4.96l-4.53,3.66Z" style="fill:#9e9e9e; stroke:#263238; stroke-linejoin:round;"></path><g><path d="M392.18,292.42c5.6-.49,8.51-1.41,8.51-1.41" style="fill:none; stroke:#263238; stroke-linecap:round; stroke-linejoin:round;"></path><path d="M350.75,284.36s11.6,6.93,26.74,8.06c4.25,.32,7.95,.35,11.06,.22" style="fill:none; stroke:#263238; stroke-linecap:round; stroke-linejoin:round;"></path><path d="M373.25,296.39s16.13,.42,29.57-2.69" style="fill:none; stroke:#263238; stroke-linecap:round; stroke-linejoin:round;"></path><path d="M342.26,280.96s-1.7-5.23-.28-7.64" style="fill:none; stroke:#263238; stroke-linecap:round; stroke-linejoin:round;"></path><path d="M336.35,289.47c1.69,2.64,4.36,2.39,4.36,2.39" style="fill:none; stroke:#263238; stroke-linecap:round; stroke-linejoin:round;"></path><path d="M340.85,276.72s-6.65,3.4-5.66,9.48" style="fill:none; stroke:#263238; stroke-linecap:round; stroke-linejoin:round;"></path><path d="M398.41,303.78c1.04,.38,2.04,.88,2.85,1.52" style="fill:none; stroke:#263238; stroke-linecap:round; stroke-linejoin:round;"></path><path d="M391.78,302.47s2.17,.1,4.62,.7" style="fill:none; stroke:#263238; stroke-linecap:round; stroke-linejoin:round;"></path></g></g><path d="M376.11,471.94s24.35-64.55,26.88-81.33c2.53-16.77,7.35-37.68,3.45-44.11-3.91-6.43-14.47-8.04-25.04-4.59-10.57,3.45-21.59,10.34-21.59,10.34,0,0-26.65,53.76-28.26,65.47s1.15,16.31,1.15,16.31l-8.73,24.58" style="fill:#fff; stroke:#263238; stroke-linejoin:round;"></path><path d="M323.64,332.93s-.17,8.66-.17,12.69,1.5,17.5,1.5,17.85-1.84,4.03-1.84,4.03l15.08,4.49,4.72-10.48s5.53-7.02,7.6-9.79,4.84-10.59,5.64-12.21c.81-1.61,1.96-2.65,1.96-2.65l-11.63-14.97-11.98,8.52-10.89,2.51Z" style="fill:#fff; stroke:#263238; stroke-linejoin:round;"></path><path d="M332.7,343.63s4.83,3.72,5.76,6.32-1.86,6.51-1.86,6.51" style="fill:none; stroke:#263238; stroke-linejoin:round;"></path><path d="M345.29,320.26l-15.08,15.83c-.29,.3-.27,.78,.04,1.06l11.59,10.64c.29,.27,.74,.26,1.02-.02l15.09-14.98c.29-.29,.29-.76,0-1.05l-11.6-11.49c-.29-.29-.77-.29-1.06,.02Z" style="fill:#92E3A9; stroke:#263238; stroke-linejoin:round;"></path><g><path d="M326.44,334.87s5.17,5.6,7.76,6.47c2.59,.86,3.23-.43,2.37-1.94-.86-1.51-7.33-9.05-8.19-9.48s-4.31,1.51-4.74,3.02l.65,1.51" style="fill:#fff; stroke:#263238; stroke-linejoin:round;"></path><path d="M328.38,329.91s1.08-3.23,3.02-3.45,7.11,6.47,8.84,7.76c1.72,1.29,1.29,2.37-.86,2.59s-7.54-3.23-8.41-3.88c-.86-.65-2.59-3.02-2.59-3.02Z" style="fill:#fff; stroke:#263238; stroke-linejoin:round;"></path><path d="M331.4,326.46s1.01-4.16,4.28-3.41c1.69,.39,8.65,7.07,9.73,8.15,1.08,1.08,.43,1.94-1.51,1.72-1.94-.22-7.97-4.31-7.97-4.31l-2.16-1.08-2.37-1.08Z" style="fill:#fff; stroke:#263238; stroke-linejoin:round;"></path></g><g><path d="M343.69,282.28s-4.31,12.07-4.53,18.32c-.22,6.25,3.02,7.54,2.16,9.91-.86,2.37-2.59,6.47-1.94,9.27s6.47,3.66,6.47,3.66c0,0,6.25,14.44,8.62,15.52,2.37,1.08,9.7-2.16,9.7-2.16,0,0,.65,1.29,.65,8.19s-3.88,10.99-4.1,16.16c-.22,5.17,1.51,8.62,14.66,3.66,13.15-4.96,21.55-15.3,25-17.24s6.68-3.45,6.68-3.45c0,0-11.21-14.44-15.95-22.85-4.74-8.41-4.1-10.13-4.1-10.13l3.66-9.7-11.42-4.1s-1.94,6.03-4.1,6.25c-2.16,.22-5.17-2.37-5.39-3.45-.22-1.08-1.51-3.66-1.51-3.66,0,0-7.76,.22-15.52-4.53-7.76-4.74-9.05-9.7-9.05-9.7Z" style="fill:#fff; stroke:#263238; stroke-linecap:round; stroke-linejoin:round;"></path><g><path d="M385.17,312.55l-2.85,1.04s-.26,6.22-3.89,10.37" style="fill:none; stroke:#263238; stroke-linecap:round; stroke-linejoin:round;"></path><path d="M383.88,311.65c0,1.07-.87,1.94-1.94,1.94s-1.94-.87-1.94-1.94,.87-1.94,1.94-1.94,1.94,.87,1.94,1.94Z" style="fill:#92E3A9; stroke:#263238; stroke-linejoin:round;"></path></g><path d="M349.48,305.02c-4.32-.18-4.95,.71-4.07,2.05" style="fill:none; stroke:#263238; stroke-linecap:round; stroke-linejoin:round;"></path><path d="M347.35,308.57s2.37,.22,4.53-.86" style="fill:none; stroke:#263238; stroke-linecap:round; stroke-linejoin:round;"></path><path d="M343.04,304.05s.86-4.31,6.25-3.02" style="fill:none; stroke:#263238; stroke-linecap:round; stroke-linejoin:round;"></path><path d="M349.51,322.37s4.53-1.94,7.33-4.74c0,0,0,4.96-2.8,6.68-2.8,1.72-4.53-1.94-4.53-1.94Z" style="fill:none; stroke:#263238; stroke-linecap:round; stroke-linejoin:round;"></path><polygon points="364.16 336.81 373.86 330.56 365.46 346.51 364.16 336.81" style="fill:#263238; stroke:#263238; stroke-linecap:round; stroke-linejoin:round;"></polygon></g><path d="M320.75,462.52l8.5-27.57s-15.62,11.95-19.07,14.7c-3.45,2.76-8.96-5.51-.92-18.15,8.04-12.64,24.35-42.04,27.8-47.32,3.45-5.28,8.5-18.61,13.78-25.96,5.28-7.35,14.61-11.71,14.61-11.71,0,0-3.36,9.88-12.32,28.48-8.96,18.61-14.7,34.69-16.54,44.11-1.84,9.42-.46,12.64-.46,12.64,0,0-9.19,27.11-9.88,28.72" style="fill:#92E3A9; stroke:#263238; stroke-linejoin:round;"></path><path d="M345.33,377.75s-10.8,20.45-12.86,32.16c-2.07,11.72,3.68,21.82,3.68,21.82" style="fill:none; stroke:#263238; stroke-linejoin:round;"></path><path d="M403.68,471.25s11.49-35.84,15.39-55.37c3.91-19.53,8.27-33.08,4.59-47.32-3.68-14.24-16.61-24.42-16.61-24.42,0,0-9.58,3.52-23.82,22.13-14.24,18.61-26.19,38.37-32.39,54.45-6.2,16.08-.46,24.12-.46,24.12l-5.28,27.57" style="fill:#92E3A9; stroke:#263238; stroke-linejoin:round;"></path><path d="M411.49,408.76s-45.95,59.27-55.37,59.73c-9.42,.46-17.46-13.78-18.61-14.93-1.15-1.15-11.72-8.73-10.8-12.86,.92-4.14,4.14-8.73,6.89-9.19,2.76-.46,10.57,5.74,10.57,5.74,0,0,29.64-38.82,30.32-39.97,.69-1.15,8.04-23.66,19.07-35.38,11.03-11.72,18.61-6.2,20.91-1.84" style="fill:#92E3A9; stroke:#263238; stroke-linejoin:round;"></path><path d="M344.18,437.25s-3.45,4.36-3.91,9.65" style="fill:none; stroke:#263238; stroke-linejoin:round;"></path><path d="M324.65,431.97c4.59-5.05,6.43-16.08,6.43-25.04s4.36-22.28,4.82-25.27c.46-2.99,5.05-8.73,4.82-11.03-.23-2.3-19.07-5.97-19.07-5.97,0,0-1.61,2.07-1.61,3.68v1.61s-9.42,17.69-13.55,34.92c-4.14,17.23-4.82,22.51-4.82,29.87s3.45,17.46,8.5,14.93c5.05-2.53,6.43-8.04,6.43-8.04" style="fill:#92E3A9; stroke:#263238; stroke-linejoin:round;"></path></g></g><g id="freepik--Character_3--inject-57"><g><g><path d="M219.55,458.34s-1.76-8.78-1.76-10.76-2.42-46.12-2.85-62.15-7.25-16.03-12.74-18.89-24.81-10.76-28.55-12.3c-3.73-1.54-4.83-3.29-6.37-4.39-1.54-1.1-6.37-1.54-6.37-1.54,0,0-30.22-7.58-35.31-6.43-5.09,1.16-20.02,12.79-26.61,17.41-6.59,4.61-28.99,16.69-28.11,27.67,.88,10.98,14.93,45.46,19.76,53.36,4.83,7.91,14.71,21.74,18.23,23.5" style="fill:#92E3A9;"></path><g><path d="M115.22,438.54c2.59,1.6,5.27,3.26,10.59,3.26s8-1.66,10.59-3.26c2.46-1.52,4.79-2.96,9.53-2.96s7.07,1.44,9.53,2.96c2.59,1.6,5.27,3.26,10.59,3.26s8-1.66,10.59-3.26c2.46-1.52,4.79-2.96,9.54-2.96s7.07,1.44,9.54,2.96c2.59,1.6,5.27,3.26,10.59,3.26s8-1.66,10.59-3.26c.16-.1,.32-.19,.47-.29-.04-.72-.07-1.48-.11-2.26-.48,.28-.95,.57-1.41,.85-2.46,1.52-4.79,2.96-9.54,2.96s-7.07-1.44-9.54-2.96c-2.59-1.6-5.27-3.26-10.59-3.26s-8,1.66-10.59,3.26c-2.46,1.52-4.79,2.96-9.54,2.96s-7.07-1.44-9.53-2.96c-2.59-1.6-5.27-3.26-10.59-3.26s-7.99,1.66-10.59,3.26c-2.46,1.52-4.79,2.96-9.53,2.96s-7.07-1.44-9.53-2.96c-2.59-1.6-5.27-3.26-10.59-3.26s-8,1.66-10.59,3.26c-1.54,.95-3.02,1.87-5.08,2.43,.22,.39,.43,.76,.62,1.08,.14,.23,.28,.46,.43,.7,2.05-.63,3.58-1.58,5.07-2.5,2.46-1.52,4.79-2.96,9.53-2.96s7.07,1.44,9.53,2.96Z" style="fill:#fff;"></path><path d="M217.98,449.49c-.76,.4-1.46,.84-2.15,1.27-2.46,1.52-4.79,2.96-9.54,2.96s-7.07-1.44-9.54-2.96c-2.59-1.6-5.27-3.26-10.59-3.26s-8,1.66-10.59,3.26c-2.46,1.52-4.79,2.96-9.54,2.96s-7.07-1.44-9.53-2.96c-2.59-1.6-5.27-3.26-10.59-3.26s-7.99,1.66-10.59,3.26c-2.46,1.52-4.79,2.96-9.53,2.96s-7.07-1.44-9.53-2.96c-2.59-1.6-5.27-3.26-10.59-3.26-4.15,0-6.69,1.01-8.84,2.22,.39,.55,.78,1.09,1.17,1.64,1.92-1.05,4.11-1.86,7.67-1.86,4.75,0,7.07,1.44,9.53,2.96,2.59,1.6,5.27,3.26,10.59,3.26s8-1.66,10.59-3.26c2.46-1.52,4.79-2.96,9.53-2.96s7.07,1.44,9.53,2.96c2.59,1.6,5.27,3.26,10.59,3.26s8-1.66,10.59-3.26c2.46-1.52,4.79-2.96,9.54-2.96s7.07,1.44,9.54,2.96c2.59,1.6,5.27,3.26,10.59,3.26s8-1.66,10.59-3.26c.47-.29,.94-.58,1.42-.85-.13-.75-.24-1.48-.33-2.11Z" style="fill:#fff;"></path><path d="M85.56,372.2c5.31,0,8-1.66,10.59-3.26,2.46-1.52,4.79-2.96,9.53-2.96s7.07,1.44,9.53,2.96c2.59,1.6,5.27,3.26,10.59,3.26s8-1.66,10.59-3.26c2.46-1.52,4.79-2.96,9.53-2.96s7.07,1.44,9.53,2.96c2.59,1.6,5.27,3.26,10.59,3.26s8-1.66,10.59-3.26c2.46-1.52,4.79-2.96,9.54-2.96s7.07,1.44,9.54,2.96c2.59,1.6,5.27,3.26,10.59,3.26,1.87,0,3.41-.21,4.74-.55-.58-.66-1.21-1.2-1.86-1.67-.86,.13-1.8,.22-2.88,.22-4.75,0-7.07-1.44-9.54-2.96-2.59-1.6-5.27-3.26-10.59-3.26s-8,1.66-10.59,3.26c-2.46,1.52-4.79,2.96-9.54,2.96s-7.07-1.44-9.53-2.96c-2.59-1.6-5.27-3.26-10.59-3.26s-7.99,1.66-10.59,3.26c-2.46,1.52-4.79,2.96-9.53,2.96s-7.07-1.44-9.53-2.96c-2.59-1.6-5.27-3.26-10.59-3.26s-8,1.66-10.59,3.26c-2.46,1.52-4.79,2.96-9.53,2.96-.93,0-1.74-.07-2.5-.17-.71,.54-1.41,1.1-2.1,1.66,1.3,.32,2.79,.51,4.6,.51Z" style="fill:#fff;"></path><path d="M115.22,355.02c2.59,1.6,5.27,3.26,10.59,3.26s8-1.66,10.59-3.26c2.46-1.52,4.79-2.96,9.53-2.96s7.07,1.44,9.53,2.96c2.59,1.6,5.27,3.26,10.59,3.26,5.01,0,7.68-1.47,10.14-2.99-.98-.4-1.77-.73-2.32-.95-1.95,1.09-4.17,1.94-7.82,1.94-4.75,0-7.07-1.44-9.53-2.96-2.59-1.6-5.27-3.26-10.59-3.26s-7.99,1.66-10.59,3.26c-2.46,1.52-4.79,2.96-9.53,2.96s-7.07-1.44-9.53-2.96c-1.58-.98-3.19-1.97-5.41-2.6-.73,.52-1.46,1.05-2.19,1.57,2.86,.46,4.67,1.57,6.55,2.73Z" style="fill:#fff;"></path><path d="M105.69,421.65c4.75,0,7.07,1.44,9.53,2.96,2.59,1.6,5.27,3.26,10.59,3.26s8-1.66,10.59-3.26c2.46-1.52,4.79-2.96,9.53-2.96s7.07,1.44,9.53,2.96c2.59,1.6,5.27,3.26,10.59,3.26s8-1.66,10.59-3.26c2.46-1.52,4.79-2.96,9.54-2.96s7.07,1.44,9.54,2.96c2.59,1.6,5.27,3.26,10.59,3.26s7.85-1.57,10.38-3.14c-.04-.75-.08-1.51-.11-2.28-.25,.15-.49,.3-.73,.45-2.46,1.52-4.79,2.96-9.54,2.96s-7.07-1.44-9.54-2.96c-2.59-1.6-5.27-3.26-10.59-3.26s-8,1.66-10.59,3.26c-2.46,1.52-4.79,2.96-9.54,2.96s-7.07-1.44-9.53-2.96c-2.59-1.6-5.27-3.26-10.59-3.26s-7.99,1.66-10.59,3.26c-2.46,1.52-4.79,2.96-9.53,2.96s-7.07-1.44-9.53-2.96c-2.59-1.6-5.27-3.26-10.59-3.26s-8,1.66-10.59,3.26c-2.46,1.52-4.79,2.96-9.53,2.96-.66,0-1.27-.03-1.84-.09,.3,.7,.59,1.39,.89,2.07,.31,.01,.62,.02,.95,.02,5.31,0,8-1.66,10.59-3.26,2.46-1.52,4.79-2.96,9.53-2.96Z" style="fill:#fff;"></path><path d="M196.76,381.16c-2.59-1.6-5.27-3.26-10.59-3.26s-8,1.66-10.59,3.26c-2.46,1.52-4.79,2.96-9.54,2.96s-7.07-1.44-9.53-2.96c-2.59-1.6-5.27-3.26-10.59-3.26s-7.99,1.66-10.59,3.26c-2.46,1.52-4.79,2.96-9.53,2.96s-7.07-1.44-9.53-2.96c-2.59-1.6-5.27-3.26-10.59-3.26s-8,1.66-10.59,3.26c-2.46,1.52-4.79,2.96-9.53,2.96s-7.07-1.44-9.53-2.96c-.86-.54-1.74-1.08-2.72-1.56-.39,.57-.73,1.15-1.04,1.72,.96,.46,1.83,.99,2.71,1.54,2.59,1.6,5.27,3.26,10.59,3.26s8-1.66,10.59-3.26c2.46-1.52,4.79-2.96,9.53-2.96s7.07,1.44,9.53,2.96c2.59,1.6,5.27,3.26,10.59,3.26s8-1.66,10.59-3.26c2.46-1.52,4.79-2.96,9.53-2.96s7.07,1.44,9.53,2.96c2.59,1.6,5.27,3.26,10.59,3.26s8-1.66,10.59-3.26c2.46-1.52,4.79-2.96,9.54-2.96s7.07,1.44,9.54,2.96c2.59,1.6,5.27,3.26,10.59,3.26,3.99,0,6.49-.93,8.59-2.08-.04-.78-.1-1.51-.18-2.21-2.1,1.24-4.39,2.28-8.41,2.28-4.75,0-7.07-1.44-9.54-2.96Z" style="fill:#fff;"></path><path d="M196.76,395.08c-2.59-1.6-5.27-3.26-10.59-3.26s-8,1.66-10.59,3.26c-2.46,1.52-4.79,2.96-9.54,2.96s-7.07-1.44-9.53-2.96c-2.59-1.6-5.27-3.26-10.59-3.26s-7.99,1.66-10.59,3.26c-2.46,1.52-4.79,2.96-9.53,2.96s-7.07-1.44-9.53-2.96c-2.59-1.6-5.27-3.26-10.59-3.26s-8,1.66-10.59,3.26c-2.46,1.52-4.79,2.96-9.53,2.96s-7.07-1.44-9.53-2.96c-1.23-.76-2.49-1.54-4.04-2.14,.2,.8,.42,1.63,.66,2.5,.81,.41,1.56,.87,2.32,1.34,2.59,1.6,5.27,3.26,10.59,3.26s8-1.66,10.59-3.26c2.46-1.52,4.79-2.96,9.53-2.96s7.07,1.44,9.53,2.96c2.59,1.6,5.27,3.26,10.59,3.26s8-1.66,10.59-3.26c2.46-1.52,4.79-2.96,9.53-2.96s7.07,1.44,9.53,2.96c2.59,1.6,5.27,3.26,10.59,3.26s8-1.66,10.59-3.26c2.46-1.52,4.79-2.96,9.54-2.96s7.07,1.44,9.54,2.96c2.59,1.6,5.27,3.26,10.59,3.26,4.32,0,6.9-1.09,9.1-2.36-.03-.77-.07-1.53-.1-2.27-2.28,1.4-4.6,2.64-9.01,2.64-4.75,0-7.07-1.44-9.54-2.96Z" style="fill:#fff;"></path><path d="M96.15,410.7c2.46-1.52,4.79-2.96,9.53-2.96s7.07,1.44,9.53,2.96c2.59,1.6,5.27,3.26,10.59,3.26s8-1.66,10.59-3.26c2.46-1.52,4.79-2.96,9.53-2.96s7.07,1.44,9.53,2.96c2.59,1.6,5.27,3.26,10.59,3.26s8-1.66,10.59-3.26c2.46-1.52,4.79-2.96,9.54-2.96s7.07,1.44,9.54,2.96c2.59,1.6,5.27,3.26,10.59,3.26,4.73,0,7.37-1.31,9.72-2.73-.04-.76-.07-1.52-.11-2.28l-.08,.05c-2.46,1.52-4.79,2.96-9.54,2.96s-7.07-1.44-9.54-2.96c-2.59-1.6-5.27-3.26-10.59-3.26s-8,1.66-10.59,3.26c-2.46,1.52-4.79,2.96-9.54,2.96s-7.07-1.44-9.53-2.96c-2.59-1.6-5.27-3.26-10.59-3.26s-7.99,1.66-10.59,3.26c-2.46,1.52-4.79,2.96-9.53,2.96s-7.07-1.44-9.53-2.96c-2.59-1.6-5.27-3.26-10.59-3.26s-8,1.66-10.59,3.26c-2.46,1.52-4.79,2.96-9.53,2.96-3.86,0-6.12-.96-8.16-2.14,.34,.92,.68,1.85,1.03,2.78,1.81,.79,4.02,1.36,7.12,1.36,5.31,0,8-1.66,10.59-3.26Z" style="fill:#fff;"></path></g><path d="M219.55,458.34s-1.76-8.78-1.76-10.76-2.42-46.12-2.85-62.15-7.25-16.03-12.74-18.89-24.81-10.76-28.55-12.3c-3.73-1.54-4.83-3.29-6.37-4.39-1.54-1.1-6.37-1.54-6.37-1.54,0,0-30.22-7.58-35.31-6.43-5.09,1.16-20.02,12.79-26.61,17.41-6.59,4.61-28.99,16.69-28.11,27.67,.88,10.98,14.93,45.46,19.76,53.36,4.83,7.91,14.71,21.74,18.23,23.5" style="fill:none; stroke:#263238; stroke-linejoin:round;"></path><line x1="196.27" y1="458.34" x2="199.79" y2="385" style="fill:none; stroke:#263238; stroke-linejoin:round;"></line><path d="M168.16,353.16s-.22,7.03-3.07,12.96" style="fill:none; stroke:#263238; stroke-linejoin:round;"></path><path d="M171.02,355.35s1.76,9.88-.44,18.45" style="fill:none; stroke:#263238; stroke-linejoin:round;"></path><path d="M114.58,387.85s-6.15-10.76-12.74-14.71" style="fill:none; stroke:#263238; stroke-linejoin:round;"></path><path d="M104.26,368.09s6.59,6.59,8.13,11.86" style="fill:none; stroke:#263238; stroke-linejoin:round;"></path><path d="M104.48,414.86s-10.54,8.78-12.74,15.59" style="fill:none; stroke:#263238; stroke-linejoin:round;"></path><path d="M100.31,415.74s-7.69,2.85-9.22,7.47" style="fill:none; stroke:#263238; stroke-linejoin:round;"></path></g><g><path d="M164.25,343s-.74,14.72-2.94,17.3c-2.21,2.58-13.62,3.13-19.14-1.1-5.52-4.23-16.56-17.3-16.56-17.3l.92-21.35s8.47,7.36,16.01,15.28c7.55,7.91,21.72,7.18,21.72,7.18Z" style="fill:#fff; stroke:#263238; stroke-linejoin:round;"></path><g><path d="M172.31,290.71s1.74,4.99,1.3,12.59c-.43,7.6,1.74,12.81,.22,18.23s-6.29,20.4-7.81,22.14c-1.52,1.74-13.89,3.69-17.58,2.17-3.69-1.52-22.79-22.79-22.79-22.79,0,0-8.03-3.91-9.55-8.47-1.52-4.56-1.3-5.64-1.3-5.64,0,0,3.26-8.47,3.91-10.85s4.34-17.58,16.93-21.27c12.59-3.69,22.36-.43,25.83,.87,3.47,1.3,7.38,4.99,7.38,4.99l3.47,8.03Z" style="fill:#fff; stroke:#263238; stroke-linejoin:round;"></path><path d="M165.59,311.33s4.12,6.73,2.39,8.03c-1.74,1.3-9.98,2.6-12.37,1.3-2.39-1.3-1.09-4.56-1.09-4.56,0,0-5.86,.43-8.47,3.04" style="fill:none; stroke:#263238; stroke-linejoin:round;"></path><path d="M165.8,324.36s-10.85,1.74-21.27-1.95c0,0,3.26,6.95,10.85,8.03s10.42-6.08,10.42-6.08Z" style="fill:#fff; stroke:#263238; stroke-linejoin:round;"></path><path d="M166.38,304.52c0,1.39,.74,2.51,1.66,2.51s1.66-1.13,1.66-2.51-.74-2.51-1.66-2.51-1.66,1.13-1.66,2.51Z" style="fill:#263238;"></path><ellipse cx="150.17" cy="306.78" rx="1.66" ry="2.51" style="fill:#263238;"></ellipse><path d="M165.59,306.99s1.3,1.74,5.43,2.82" style="fill:none; stroke:#263238; stroke-linejoin:round;"></path><path d="M151.28,310.47s-3.09,2-6.19,1.82" style="fill:none; stroke:#263238; stroke-linejoin:round;"></path><path d="M154.93,297s-5.23-.84-7.88,.03c-2.65,.87-5.39,3.94-4.86,5.35,.53,1.4,2.72-1.79,5.91-2.72s6.32-.76,7.57-1.09c1.24-.33-.74-1.56-.74-1.56Z" style="fill:#263238; stroke:#263238; stroke-linecap:round; stroke-linejoin:round;"></path><path d="M162.71,296.21s3.87-1.73,6.01-1.28c2.15,.45,4.7,3.17,4.5,4.7s-2.34-1.39-4.91-1.82c-2.57-.43-4.94,.27-5.93,.13-1-.14,.33-1.73,.33-1.73Z" style="fill:#263238; stroke:#263238; stroke-linecap:round; stroke-linejoin:round;"></path><path d="M130.64,267.92s11.94-7.38,23.66-5.64c11.72,1.74,22.79,8.9,23.01,11.29,.22,2.39-5.43,2.82-5.43,2.82,0,0,5.64,4.99,4.56,9.55-1.09,4.56-4.12,4.78-4.12,4.78l-3.47-8.03s-12.81,.65-18.23-.22-8.68-1.95-8.68-1.95l-9.77,5.21s10.42,2.39,8.9,3.91c-1.52,1.52-6.29,1.3-6.29,1.3,0,0,4.99,6.95,3.69,8.9-1.3,1.95-6.95,5.86-6.95,5.86,0,0,1.74,5.86,.65,7.16-1.09,1.3-4.12,0-4.78-.87-.65-.87-4.99-5.43-4.99-5.43l-7.6,2.39s-5.86-12.37-5.43-17.58c.43-5.21,3.47-11.72,6.73-13.02,3.26-1.3,5.43-3.04,5.43-3.04,0,0,2.17-7.81,4.34-10.2,2.17-2.39,4.56,0,4.78,2.82Z" style="fill:#263238; stroke:#263238; stroke-linecap:round; stroke-linejoin:round;"></path></g></g><g><path d="M120.85,303.3l24,37.84c.51,.81,.3,1.88-.48,2.43l-16.39,11.55c-.88,.62-2.1,.33-2.61-.62l-20.36-37.96c-.39-.73-.23-1.63,.38-2.18l12.75-11.42c.83-.74,2.12-.56,2.71,.38Z" style="fill:#92E3A9; stroke:#263238; stroke-linejoin:round;"></path><g><path d="M141.98,341.53s.74,4.42,2.21,4.6c1.47,.18,2.76-3.31,2.76-3.31,0,0-2.58-7.91-3.13-8.28-.55-.37-4.42-6.81-5.52-7.91-1.1-1.1-2.94-1.47-2.94-1.47,0,0-4.23-4.79-5.34-4.97-1.1-.18-5.52,2.58-5.52,2.58,0,0-3.17-8.63-4.64-10.47-1.47-1.84-5.3-4.25-5.48-2.04-.18,2.21,2.7,6.92,3.99,12.62s1.53,9.65,.98,13.7c-.55,4.05-1.1,9.39-.18,12.7s7.18,19.14,7.18,19.14l.37,3.13,14.17,2.58s3.5-8.1,3.31-10.67c-.18-2.58-4.78-19.32-4.78-19.32l.74-2.94,1.84,.37Z" style="fill:#fff; stroke:#263238; stroke-linejoin:round;"></path><path d="M143.82,334.54s-2.58-2.94-4.23-1.84c-1.66,1.1-5.15,7.36-5.52,7.91s-1.29,3.68-1.29,4.78" style="fill:none; stroke:#263238; stroke-linejoin:round;"></path><path d="M135.36,325.15s-6.07,10.49-6.81,11.96c-.74,1.47-2.39,4.78-2.21,6.63" style="fill:none; stroke:#263238; stroke-linejoin:round;"></path><polygon points="132.96 329.2 130.02 327.18 128.55 329.38 128.55 337.11 132.96 329.2" style="fill:#92E3A9; stroke:#263238; stroke-linejoin:round;"></polygon><path d="M124.5,322.76s-2.02,0-2.39,2.76c-.37,2.76-.92,14.35-.92,14.35" style="fill:none; stroke:#263238; stroke-linejoin:round;"></path></g><path d="M99.65,455.49s6.37,6.37,10.76,9.88,14.71,.88,18.89-.88,7.69-20.64,7.69-20.64c0,0,11.42-40.63,11.64-42.16,.22-1.54,.66-5.93-1.32-8.34-1.98-2.42-19.54-10.54-20.64-10.76l-6.81,2.64s-6.15,1.54-7.91,5.93-16.69,50.73-16.91,52.26" style="fill:#92E3A9;"></path><g><path d="M145.92,405.73c-5.31,0-7.99,1.66-10.59,3.26-2.46,1.52-4.79,2.96-9.53,2.96s-7.07-1.44-9.53-2.96c-2.37-1.47-4.81-2.97-9.27-3.22-.21,.65-.43,1.31-.65,1.99,4.28,.13,6.53,1.49,8.86,2.94,2.59,1.6,5.27,3.26,10.59,3.26s8-1.66,10.59-3.26c2.46-1.52,4.79-2.96,9.53-2.96,.39,0,.74,.02,1.1,.04,.19-.71,.37-1.37,.54-1.98-.52-.04-1.06-.06-1.63-.06Z" style="fill:#fff;"></path><path d="M125.8,386.12c2.74,0,4.78-.44,6.47-1.09-1.02-.48-1.97-.91-2.78-1.28-1.06,.22-2.25,.37-3.68,.37-.98,0-1.84-.07-2.64-.19l-3.31,1.28c1.59,.54,3.48,.9,5.95,.9Z" style="fill:#fff;"></path><path d="M135.34,436.83c-2.46,1.52-4.79,2.96-9.53,2.96s-7.07-1.44-9.53-2.96c-2.59-1.6-5.27-3.26-10.59-3.26-3.77,0-6.21,.84-8.24,1.89-.32,1.02-.62,1.96-.88,2.82,2.32-1.43,4.64-2.71,9.12-2.71,4.75,0,7.07,1.44,9.53,2.96,2.59,1.6,5.27,3.26,10.59,3.26s8-1.66,10.59-3.26c.81-.5,1.61-.99,2.48-1.42,.22-.79,.45-1.62,.7-2.5-1.64,.61-2.95,1.42-4.23,2.22Z" style="fill:#fff;"></path><path d="M105.69,449.49c4.75,0,7.07,1.44,9.53,2.96,2.59,1.6,5.27,3.26,10.59,3.26,4.2,0,6.75-1.03,8.91-2.26,.27-.95,.51-1.88,.74-2.78l-.12,.07c-2.46,1.52-4.79,2.96-9.53,2.96s-7.07-1.44-9.53-2.96c-2.59-1.6-5.27-3.26-10.59-3.26-3.84,0-6.3,.87-8.35,1.95l.72,1.88c1.91-1.04,4.1-1.83,7.63-1.83Z" style="fill:#fff;"></path><path d="M125.8,400.04c5.31,0,8-1.66,10.59-3.26,2.46-1.52,4.79-2.96,9.53-2.96,.63,0,1.21,.03,1.76,.08-.12-.19-.24-.38-.38-.55-.31-.38-1.01-.9-1.97-1.52-4.92,.12-7.5,1.71-9.99,3.25-2.46,1.52-4.79,2.96-9.53,2.96s-7.07-1.44-9.53-2.96c-1.45-.9-2.92-1.81-4.87-2.44-.19,.53-.41,1.17-.66,1.91,1.75,.56,3.1,1.38,4.48,2.23,2.59,1.6,5.27,3.26,10.59,3.26Z" style="fill:#fff;"></path><path d="M115.22,424.62c2.59,1.6,5.27,3.26,10.59,3.26s8-1.66,10.59-3.26c1.92-1.19,3.77-2.32,6.74-2.76,.2-.7,.39-1.4,.58-2.1-3.9,.39-6.17,1.79-8.38,3.15-2.46,1.52-4.79,2.96-9.53,2.96s-7.07-1.44-9.53-2.96c-2.59-1.6-5.27-3.26-10.59-3.26-1.22,0-2.3,.09-3.27,.25-.24,.73-.47,1.46-.7,2.19,1.13-.26,2.41-.43,3.97-.43,4.75,0,7.07,1.44,9.53,2.96Z" style="fill:#fff;"></path></g><path d="M99.65,455.49s6.37,6.37,10.76,9.88,14.71,.88,18.89-.88,7.69-20.64,7.69-20.64c0,0,11.42-40.63,11.64-42.16,.22-1.54,.66-5.93-1.32-8.34-1.98-2.42-19.54-10.54-20.64-10.76l-6.81,2.64s-6.15,1.54-7.91,5.93-16.69,50.73-16.91,52.26" style="fill:none; stroke:#263238; stroke-linejoin:round;"></path><path d="M119.85,385.22s1.98-20.2,4.17-20.64c2.2-.44,17.79,2.42,21.52,5.71,3.73,3.29,2.42,5.05,1.98,7.03-.44,1.98-3.88,13.73-3.88,13.73,0,0-21.38-5.82-23.79-5.82Z" style="fill:#92E3A9; stroke:#263238; stroke-linejoin:round;"></path></g></g></g><g id="freepik--Character_2--inject-57"><g><path d="M410.49,233.68s15.55-67.37,19.6-79.31c4.06-11.94-5.18-17.57-15.32-21.63-10.14-4.06-36.05-18.25-36.05-18.25l-40.11,1.35s-16.22,13.52-22.53,17.12c-6.31,3.6-19.15,7.66-19.15,20.73s-4.51,78.41-4.51,78.41" style="fill:#92E3A9; stroke:#263238; stroke-linejoin:round;"></path><g><rect x="414.15" y="150.15" width="11.7" height="11.7" style="fill:none;"></rect><rect x="342.15" y="174.15" width="11.7" height="11.7" style="fill:none;"></rect><rect x="342.15" y="150.15" width="11.7" height="11.7" style="fill:none;"></rect><rect x="402.15" y="150.15" width="11.7" height="11.7" style="fill:none;"></rect><rect x="402.15" y="162.15" width="11.7" height="11.7" style="fill:none;"></rect><rect x="402.15" y="186.15" width="11.7" height="11.7" style="fill:none;"></rect><rect x="402.15" y="174.15" width="11.7" height="11.7" style="fill:none;"></rect><rect x="318.15" y="174.15" width="11.7" height="11.7" style="fill:none;"></rect><rect x="378.15" y="126.15" width="11.7" height="11.7" style="fill:none;"></rect><rect x="330.15" y="162.15" width="11.7" height="11.7" style="fill:none;"></rect><rect x="330.15" y="174.15" width="11.7" height="11.7" style="fill:none;"></rect><rect x="342.15" y="198.15" width="11.7" height="11.7" style="fill:none;"></rect><rect x="330.15" y="186.15" width="11.7" height="11.7" style="fill:none;"></rect><rect x="318.15" y="162.15" width="11.7" height="11.7" style="fill:none;"></rect><polygon points="329.85 215.75 329.85 210.15 318.15 210.15 318.15 215.75 318.15 216 318.15 216.25 318.15 221.85 329.85 221.85 329.85 216.25 329.85 216 329.85 215.75" style="fill:none;"></polygon><rect x="366.15" y="198.15" width="11.7" height="11.7" style="fill:none;"></rect><rect x="366.15" y="186.15" width="11.7" height="11.7" style="fill:none;"></rect><rect x="330.15" y="150.15" width="11.7" height="11.7" style="fill:none;"></rect><rect x="402.15" y="198.15" width="11.7" height="11.7" style="fill:none;"></rect><rect x="366.15" y="162.15" width="11.7" height="11.7" style="fill:none;"></rect><rect x="318.15" y="198.15" width="11.7" height="11.7" style="fill:none;"></rect><polygon points="360 173.85 360.25 173.85 365.85 173.85 365.85 162.15 360.25 162.15 360 162.15 359.75 162.15 354.15 162.15 354.15 173.85 359.75 173.85 360 173.85" style="fill:none;"></polygon><rect x="378.15" y="174.15" width="11.7" height="11.7" style="fill:none;"></rect><rect x="378.15" y="150.15" width="11.7" height="11.7" style="fill:none;"></rect><rect x="366.15" y="150.15" width="11.7" height="11.7" style="fill:none;"></rect><rect x="378.15" y="198.15" width="11.7" height="11.7" style="fill:none;"></rect><rect x="318.15" y="186.15" width="11.7" height="11.7" style="fill:none;"></rect><polygon points="360 161.85 360.25 161.85 365.85 161.85 365.85 150.15 360.25 150.15 360 150.15 359.75 150.15 354.15 150.15 354.15 161.85 359.75 161.85 360 161.85" style="fill:none;"></polygon><polygon points="402.15 149.85 413.85 149.85 413.85 144.25 413.85 144 413.85 143.75 413.85 138.15 402.15 138.15 402.15 143.75 402.15 144 402.15 144.25 402.15 149.85" style="fill:none;"></polygon><rect x="342.15" y="162.15" width="11.7" height="11.7" style="fill:none;"></rect><polygon points="360 185.85 360.25 185.85 365.85 185.85 365.85 174.15 360.25 174.15 360 174.15 359.75 174.15 354.15 174.15 354.15 185.85 359.75 185.85 360 185.85" style="fill:none;"></polygon><polygon points="360 209.85 360.25 209.85 365.85 209.85 365.85 198.15 360.25 198.15 360 198.15 359.75 198.15 354.15 198.15 354.15 209.85 359.75 209.85 360 209.85" style="fill:none;"></polygon><rect x="378.15" y="162.15" width="11.7" height="11.7" style="fill:none;"></rect><polygon points="360 197.85 360.25 197.85 365.85 197.85 365.85 186.15 360.25 186.15 360 186.15 359.75 186.15 354.15 186.15 354.15 197.85 359.75 197.85 360 197.85" style="fill:none;"></polygon><rect x="378.15" y="186.15" width="11.7" height="11.7" style="fill:none;"></rect><rect x="366.15" y="174.15" width="11.7" height="11.7" style="fill:none;"></rect><polygon points="305.85 216.25 305.85 216 305.85 215.75 305.85 210.15 294.15 210.15 294.15 215.75 294.15 216 294.15 216.25 294.15 221.85 305.85 221.85 305.85 216.25" style="fill:none;"></polygon><polygon points="354.15 149.85 359.75 149.85 360 149.85 360.25 149.85 365.85 149.85 365.85 144.25 365.85 144 365.85 143.75 365.85 138.15 360.25 138.15 360 138.15 359.75 138.15 354.15 138.15 354.15 143.75 354.15 144 354.15 144.25 354.15 149.85" style="fill:none;"></polygon><polygon points="360 137.85 360.25 137.85 365.85 137.85 365.85 126.15 360.25 126.15 360 126.15 359.75 126.15 354.15 126.15 354.15 137.85 359.75 137.85 360 137.85" style="fill:none;"></polygon><polygon points="306.15 221.85 317.85 221.85 317.85 216.25 317.85 216 317.85 215.75 317.85 210.15 306.15 210.15 306.15 215.75 306.15 216 306.15 216.25 306.15 221.85" style="fill:none;"></polygon><rect x="342.15" y="126.15" width="11.7" height="11.7" style="fill:none;"></rect><rect x="390.15" y="150.15" width="11.7" height="11.7" style="fill:none;"></rect><polygon points="378.15 149.85 389.85 149.85 389.85 144.25 389.85 144 389.85 143.75 389.85 138.15 378.15 138.15 378.15 143.75 378.15 144 378.15 144.25 378.15 149.85" style="fill:none;"></polygon><polygon points="390.15 144 390.15 144.25 390.15 149.85 401.85 149.85 401.85 144.25 401.85 144 401.85 143.75 401.85 138.15 390.15 138.15 390.15 143.75 390.15 144" style="fill:none;"></polygon><rect x="366.15" y="126.15" width="11.7" height="11.7" style="fill:none;"></rect><polygon points="366.15 143.75 366.15 144 366.15 144.25 366.15 149.85 377.85 149.85 377.85 144.25 377.85 144 377.85 143.75 377.85 138.15 366.15 138.15 366.15 143.75" style="fill:none;"></polygon><polygon points="342.15 143.75 342.15 144 342.15 144.25 342.15 149.85 353.85 149.85 353.85 144.25 353.85 144 353.85 143.75 353.85 138.15 342.15 138.15 342.15 143.75" style="fill:none;"></polygon><rect x="306.15" y="162.15" width="11.7" height="11.7" style="fill:none;"></rect><rect x="306.15" y="174.15" width="11.7" height="11.7" style="fill:none;"></rect><rect x="306.15" y="186.15" width="11.7" height="11.7" style="fill:none;"></rect><rect x="306.15" y="150.15" width="11.7" height="11.7" style="fill:none;"></rect><polygon points="330.15 149.85 341.85 149.85 341.85 144.25 341.85 144 341.85 143.75 341.85 138.15 330.15 138.15 330.15 143.75 330.15 144 330.15 144.25 330.15 149.85" style="fill:none;"></polygon><rect x="318.15" y="150.15" width="11.7" height="11.7" style="fill:none;"></rect><polygon points="329.85 144 329.85 143.75 329.85 138.15 318.15 138.15 318.15 143.75 318.15 144 318.15 144.25 318.15 149.85 329.85 149.85 329.85 144.25 329.85 144" style="fill:none;"></polygon><rect x="306.15" y="198.15" width="11.7" height="11.7" style="fill:none;"></rect><rect x="330.15" y="126.15" width="11.7" height="11.7" style="fill:none;"></rect><polygon points="365.85 216 365.85 215.75 365.85 210.15 360.25 210.15 360 210.15 359.75 210.15 354.15 210.15 354.15 215.75 354.15 216 354.15 216.25 354.15 221.85 359.75 221.85 360 221.85 360.25 221.85 365.85 221.85 365.85 216.25 365.85 216" style="fill:none;"></polygon><polygon points="353.85 215.75 353.85 210.15 342.15 210.15 342.15 215.75 342.15 216 342.15 216.25 342.15 221.85 353.85 221.85 353.85 216.25 353.85 216 353.85 215.75" style="fill:none;"></polygon><rect x="390.15" y="162.15" width="11.7" height="11.7" style="fill:none;"></rect><polygon points="389.85 216 389.85 215.75 389.85 210.15 378.15 210.15 378.15 215.75 378.15 216 378.15 216.25 378.15 221.85 389.85 221.85 389.85 216.25 389.85 216" style="fill:none;"></polygon><polygon points="341.85 216 341.85 215.75 341.85 210.15 330.15 210.15 330.15 215.75 330.15 216 330.15 216.25 330.15 221.85 341.85 221.85 341.85 216.25 341.85 216" style="fill:none;"></polygon><rect x="330.15" y="198.15" width="11.7" height="11.7" style="fill:none;"></rect><polygon points="377.85 215.75 377.85 210.15 366.15 210.15 366.15 215.75 366.15 216 366.15 216.25 366.15 221.85 377.85 221.85 377.85 216.25 377.85 216 377.85 215.75" style="fill:none;"></polygon><polygon points="390.15 215.75 390.15 216 390.15 216.25 390.15 221.85 401.85 221.85 401.85 216.25 401.85 216 401.85 215.75 401.85 210.15 390.15 210.15 390.15 215.75" style="fill:none;"></polygon><rect x="390.15" y="198.15" width="11.7" height="11.7" style="fill:none;"></rect><rect x="390.15" y="174.15" width="11.7" height="11.7" style="fill:none;"></rect><rect x="390.15" y="186.15" width="11.7" height="11.7" style="fill:none;"></rect><rect x="342.15" y="186.15" width="11.7" height="11.7" style="fill:none;"></rect><g><rect x="365.85" y="126.15" width=".3" height="11.7" style="fill:#263238;"></rect><polygon points="366.15 114.91 365.85 114.92 365.85 125.85 366.15 125.85 366.15 114.91" style="fill:#263238;"></polygon><polygon points="366.15 143.75 366.15 138.15 365.85 138.15 365.85 143.75 365.85 144 366.15 144 366.15 143.75" style="fill:#263238;"></polygon><path d="M390.15,120.62c-.1-.05-.2-.11-.3-.16v5.38h.3v-5.23Z" style="fill:#263238;"></path><rect x="389.85" y="126.15" width=".3" height="11.7" style="fill:#263238;"></rect><polygon points="389.85 144 390.15 144 390.15 143.75 390.15 138.15 389.85 138.15 389.85 143.75 389.85 144" style="fill:#263238;"></polygon><polygon points="413.85 143.75 413.85 144 414.15 144 414.15 143.75 414.15 138.15 413.85 138.15 413.85 143.75" style="fill:#263238;"></polygon><path d="M414.15,132.48c-.1-.04-.2-.08-.3-.12v5.49h.3v-5.37Z" style="fill:#263238;"></path><polygon points="378.15 137.85 378.15 138.15 389.85 138.15 390.15 138.15 401.85 138.15 401.85 137.85 390.15 137.85 389.85 137.85 378.15 137.85" style="fill:#263238;"></polygon><path d="M413.85,138.15h11.2c-.13-.1-.27-.2-.41-.3h-22.49v.3h11.7Z" style="fill:#263238;"></path><polygon points="365.85 137.85 360.25 137.85 360.25 138.15 365.85 138.15 366.15 138.15 377.85 138.15 377.85 137.85 366.15 137.85 365.85 137.85" style="fill:#263238;"></polygon><path d="M389.85,126.15h10.96c-.2-.1-.39-.2-.59-.3h-22.07v.3h11.7Z" style="fill:#263238;"></path><polygon points="365.85 126.15 366.15 126.15 377.85 126.15 377.85 125.85 366.15 125.85 365.85 125.85 360.25 125.85 360.25 126.15 365.85 126.15" style="fill:#263238;"></polygon><polygon points="377.85 137.85 377.85 138.15 377.85 143.75 377.85 144 378.15 144 378.15 143.75 378.15 138.15 378.15 137.85 378.15 126.15 378.15 125.85 378.15 114.51 377.85 114.52 377.85 125.85 377.85 126.15 377.85 137.85" style="fill:#263238;"></polygon><path d="M401.85,143.75v.25h.3v-17.17c-.1-.05-.2-.1-.3-.15v17.07Z" style="fill:#263238;"></path><path d="M426.15,143.75v-4.71c-.1-.09-.2-.18-.3-.26v5.22h.3v-.25Z" style="fill:#263238;"></path><rect x="360" y="137.85" width=".25" height=".3" style="fill:#263238;"></rect><rect x="360" y="125.85" width=".25" height=".3" style="fill:#263238;"></rect><rect x="365.85" y="150.15" width=".3" height="11.7" style="fill:#263238;"></rect><rect x="365.85" y="144.25" width=".3" height="5.6" style="fill:#263238;"></rect><rect x="365.85" y="198.15" width=".3" height="11.7" style="fill:#263238;"></rect><polygon points="365.85 215.75 365.85 216 366.15 216 366.15 215.75 366.15 210.15 365.85 210.15 365.85 215.75" style="fill:#263238;"></polygon><rect x="365.85" y="162.15" width=".3" height="11.7" style="fill:#263238;"></rect><rect x="365.85" y="186.15" width=".3" height="11.7" style="fill:#263238;"></rect><rect x="365.85" y="174.15" width=".3" height="11.7" style="fill:#263238;"></rect><rect x="389.85" y="150.15" width=".3" height="11.7" style="fill:#263238;"></rect><rect x="389.85" y="198.15" width=".3" height="11.7" style="fill:#263238;"></rect><rect x="389.85" y="174.15" width=".3" height="11.7" style="fill:#263238;"></rect><rect x="389.85" y="144.25" width=".3" height="5.6" style="fill:#263238;"></rect><rect x="389.85" y="162.15" width=".3" height="11.7" style="fill:#263238;"></rect><rect x="389.85" y="186.15" width=".3" height="11.7" style="fill:#263238;"></rect><polygon points="389.85 216 390.15 216 390.15 215.75 390.15 210.15 389.85 210.15 389.85 215.75 389.85 216" style="fill:#263238;"></polygon><rect x="413.85" y="144.25" width=".3" height="5.6" style="fill:#263238;"></rect><rect x="413.85" y="198.15" width=".3" height="11.7" style="fill:#263238;"></rect><rect x="413.85" y="162.15" width=".3" height="11.7" style="fill:#263238;"></rect><rect x="413.85" y="150.15" width=".3" height="11.7" style="fill:#263238;"></rect><rect x="413.85" y="174.15" width=".3" height="11.7" style="fill:#263238;"></rect><polygon points="413.85 215.75 413.85 216 414.15 216 414.15 215.75 414.15 210.15 413.85 210.15 413.85 215.75" style="fill:#263238;"></polygon><rect x="413.85" y="186.15" width=".3" height="11.7" style="fill:#263238;"></rect><path d="M402.15,209.85v.3h13.84l.07-.3h-13.91Z" style="fill:#263238;"></path><polygon points="366.15 209.85 365.85 209.85 360.25 209.85 360.25 210.15 365.85 210.15 366.15 210.15 377.85 210.15 377.85 209.85 366.15 209.85" style="fill:#263238;"></polygon><polygon points="389.85 209.85 378.15 209.85 378.15 210.15 389.85 210.15 390.15 210.15 401.85 210.15 401.85 209.85 390.15 209.85 389.85 209.85" style="fill:#263238;"></polygon><path d="M402.15,185.85v.3h19.6l.07-.3h-19.68Z" style="fill:#263238;"></path><polygon points="365.85 185.85 360.25 185.85 360.25 186.15 365.85 186.15 366.15 186.15 377.85 186.15 377.85 185.85 366.15 185.85 365.85 185.85" style="fill:#263238;"></polygon><polygon points="389.85 185.85 378.15 185.85 378.15 186.15 389.85 186.15 390.15 186.15 401.85 186.15 401.85 185.85 390.15 185.85 389.85 185.85" style="fill:#263238;"></polygon><path d="M427.83,162.15l.08-.3h-1.76v.3h1.68Z" style="fill:#263238;"></path><polygon points="414.15 161.85 413.85 161.85 402.15 161.85 402.15 162.15 413.85 162.15 414.15 162.15 425.85 162.15 425.85 161.85 414.15 161.85" style="fill:#263238;"></polygon><polygon points="365.85 161.85 360.25 161.85 360.25 162.15 365.85 162.15 366.15 162.15 377.85 162.15 377.85 161.85 366.15 161.85 365.85 161.85" style="fill:#263238;"></polygon><polygon points="389.85 161.85 378.15 161.85 378.15 162.15 389.85 162.15 390.15 162.15 401.85 162.15 401.85 161.85 390.15 161.85 389.85 161.85" style="fill:#263238;"></polygon><path d="M402.15,197.85v.3h16.7l.07-.3h-16.77Z" style="fill:#263238;"></path><polygon points="365.85 197.85 360.25 197.85 360.25 198.15 365.85 198.15 366.15 198.15 377.85 198.15 377.85 197.85 366.15 197.85 365.85 197.85" style="fill:#263238;"></polygon><polygon points="389.85 197.85 378.15 197.85 378.15 198.15 389.85 198.15 390.15 198.15 401.85 198.15 401.85 197.85 390.15 197.85 389.85 197.85" style="fill:#263238;"></polygon><path d="M402.15,173.85v.3h22.57c.03-.1,.05-.2,.08-.3h-22.65Z" style="fill:#263238;"></path><polygon points="365.85 173.85 360.25 173.85 360.25 174.15 365.85 174.15 366.15 174.15 377.85 174.15 377.85 173.85 366.15 173.85 365.85 173.85" style="fill:#263238;"></polygon><polygon points="389.85 173.85 378.15 173.85 378.15 174.15 389.85 174.15 390.15 174.15 401.85 174.15 401.85 173.85 390.15 173.85 389.85 173.85" style="fill:#263238;"></polygon><polygon points="365.85 150.15 366.15 150.15 377.85 150.15 377.85 149.85 366.15 149.85 365.85 149.85 360.25 149.85 360.25 150.15 365.85 150.15" style="fill:#263238;"></polygon><path d="M431.01,150.15c0-.1,0-.2,.02-.3h-4.88v.3h4.86Z" style="fill:#263238;"></path><polygon points="402.15 149.85 402.15 150.15 413.85 150.15 414.15 150.15 425.85 150.15 425.85 149.85 414.15 149.85 413.85 149.85 402.15 149.85" style="fill:#263238;"></polygon><polygon points="389.85 149.85 378.15 149.85 378.15 150.15 389.85 150.15 390.15 150.15 401.85 150.15 401.85 149.85 390.15 149.85 389.85 149.85" style="fill:#263238;"></polygon><polygon points="377.85 161.85 377.85 162.15 377.85 173.85 377.85 174.15 377.85 185.85 377.85 186.15 377.85 197.85 377.85 198.15 377.85 209.85 377.85 210.15 377.85 215.75 377.85 216 378.15 216 378.15 215.75 378.15 210.15 378.15 209.85 378.15 198.15 378.15 197.85 378.15 186.15 378.15 185.85 378.15 174.15 378.15 173.85 378.15 162.15 378.15 161.85 378.15 150.15 378.15 149.85 378.15 144.25 377.85 144.25 377.85 149.85 377.85 150.15 377.85 161.85" style="fill:#263238;"></polygon><polygon points="402.15 198.15 402.15 197.85 402.15 186.15 402.15 185.85 402.15 174.15 402.15 173.85 402.15 162.15 402.15 161.85 402.15 150.15 402.15 149.85 402.15 144.25 401.85 144.25 401.85 149.85 401.85 150.15 401.85 161.85 401.85 162.15 401.85 173.85 401.85 174.15 401.85 185.85 401.85 186.15 401.85 197.85 401.85 198.15 401.85 209.85 401.85 210.15 401.85 215.75 401.85 216 402.15 216 402.15 215.75 402.15 210.15 402.15 209.85 402.15 198.15" style="fill:#263238;"></polygon><path d="M425.85,161.85v7.85c.1-.4,.2-.79,.3-1.17v-24.28h-.3v17.6Z" style="fill:#263238;"></path><rect x="360" y="209.85" width=".25" height=".3" style="fill:#263238;"></rect><rect x="360" y="185.85" width=".25" height=".3" style="fill:#263238;"></rect><rect x="360" y="161.85" width=".25" height=".3" style="fill:#263238;"></rect><rect x="360" y="197.85" width=".25" height=".3" style="fill:#263238;"></rect><rect x="360" y="173.85" width=".25" height=".3" style="fill:#263238;"></rect><rect x="360" y="149.85" width=".25" height=".3" style="fill:#263238;"></rect><rect x="365.85" y="144" width=".3" height=".25" style="fill:#263238;"></rect><rect x="389.85" y="144" width=".3" height=".25" style="fill:#263238;"></rect><rect x="413.85" y="144" width=".3" height=".25" style="fill:#263238;"></rect><rect x="377.85" y="144" width=".3" height=".25" style="fill:#263238;"></rect><rect x="401.85" y="144" width=".3" height=".25" style="fill:#263238;"></rect><rect x="425.85" y="144" width=".3" height=".25" style="fill:#263238;"></rect><rect x="360.53" y="227.47" width="10.93" height=".3" transform="translate(133.54 590.56) rotate(-89.24)" style="fill:#263238;"></rect><rect x="365.85" y="216.25" width=".3" height="5.6" style="fill:#263238;"></rect><rect x="389.85" y="216.25" width=".3" height="5.6" style="fill:#263238;"></rect><rect x="384.37" y="227.63" width="11.26" height=".3" transform="translate(157.06 614.71) rotate(-89.24)" style="fill:#263238;"></rect><path d="M413.85,219.25c.1-.42,.2-.85,.3-1.28v-1.72h-.3v3Z" style="fill:#263238;"></path><polygon points="366.15 221.85 365.85 221.85 360.25 221.85 360.25 222.15 365.85 222.15 366.15 222.15 377.85 222.15 377.85 221.85 366.15 221.85" style="fill:#263238;"></polygon><path d="M413.17,222.15l.07-.3h-11.09v.3h11.02Z" style="fill:#263238;"></path><polygon points="390.15 221.85 389.85 221.85 378.15 221.85 378.15 222.15 389.85 222.15 390.15 222.15 401.85 222.15 401.85 221.85 390.15 221.85" style="fill:#263238;"></polygon><polygon points="378.15 216.25 377.85 216.25 377.85 221.85 377.85 222.15 377.85 233.24 378.15 233.25 378.15 222.15 378.15 221.85 378.15 216.25" style="fill:#263238;"></polygon><polygon points="401.85 221.85 401.85 222.15 401.85 233.56 402.15 233.57 402.15 222.15 402.15 221.85 402.15 216.25 401.85 216.25 401.85 221.85" style="fill:#263238;"></polygon><rect x="360" y="221.85" width=".25" height=".3" style="fill:#263238;"></rect><rect x="365.85" y="216" width=".3" height=".25" style="fill:#263238;"></rect><rect x="389.85" y="216" width=".3" height=".25" style="fill:#263238;"></rect><rect x="413.85" y="216" width=".3" height=".25" style="fill:#263238;"></rect><rect x="377.85" y="216" width=".3" height=".25" style="fill:#263238;"></rect><rect x="401.85" y="216" width=".3" height=".25" style="fill:#263238;"></rect><path d="M318.15,131.67c-.1,.07-.2,.13-.3,.2v5.98h.3v-6.18Z" style="fill:#263238;"></path><polygon points="318.15 143.75 318.15 138.15 317.85 138.15 317.85 143.75 317.85 144 318.15 144 318.15 143.75" style="fill:#263238;"></polygon><polygon points="342.15 115.72 341.85 115.73 341.85 125.85 342.15 125.85 342.15 115.72" style="fill:#263238;"></polygon><rect x="341.85" y="126.15" width=".3" height="11.7" style="fill:#263238;"></rect><polygon points="342.15 143.75 342.15 138.15 341.85 138.15 341.85 143.75 341.85 144 342.15 144 342.15 143.75" style="fill:#263238;"></polygon><path d="M329.85,138.15v-.3h-22.91c-.16,.1-.32,.2-.48,.3h23.39Z" style="fill:#263238;"></path><polygon points="360 138.15 360 137.85 359.75 137.85 354.15 137.85 354.15 138.15 359.75 138.15 360 138.15" style="fill:#263238;"></polygon><polygon points="342.15 138.15 353.85 138.15 353.85 137.85 342.15 137.85 341.85 137.85 330.15 137.85 330.15 138.15 341.85 138.15 342.15 138.15" style="fill:#263238;"></polygon><path d="M326.13,125.85c-.13,.1-.26,.2-.39,.3h4.11v-.3h-3.72Z" style="fill:#263238;"></path><polygon points="341.85 126.15 342.15 126.15 353.85 126.15 353.85 125.85 342.15 125.85 341.85 125.85 330.15 125.85 330.15 126.15 341.85 126.15" style="fill:#263238;"></polygon><polygon points="359.75 126.15 360 126.15 360 125.85 359.75 125.85 354.15 125.85 354.15 126.15 359.75 126.15" style="fill:#263238;"></polygon><path d="M306.15,143.75v-5.4c-.1,.07-.2,.13-.3,.2v5.45h.3v-.25Z" style="fill:#263238;"></path><path d="M329.85,143.75v.25h.3v-21.3c-.1,.08-.2,.16-.3,.24v20.81Z" style="fill:#263238;"></path><polygon points="353.85 137.85 353.85 138.15 353.85 143.75 353.85 144 354.15 144 354.15 143.75 354.15 138.15 354.15 137.85 354.15 126.15 354.15 125.85 354.15 115.32 353.85 115.33 353.85 125.85 353.85 126.15 353.85 137.85" style="fill:#263238;"></polygon><path d="M294.15,206.06c-.08,1.29-.16,2.55-.24,3.79h.24v-3.79Z" style="fill:#263238;"></path><path d="M294.15,215.75v-5.6h-.26l-.04,.56v5.29h.3v-.25Z" style="fill:#263238;"></path><rect x="317.85" y="198.15" width=".3" height="11.7" style="fill:#263238;"></rect><rect x="317.85" y="174.15" width=".3" height="11.7" style="fill:#263238;"></rect><rect x="317.85" y="144.25" width=".3" height="5.6" style="fill:#263238;"></rect><rect x="317.85" y="186.15" width=".3" height="11.7" style="fill:#263238;"></rect><rect x="317.85" y="162.15" width=".3" height="11.7" style="fill:#263238;"></rect><rect x="317.85" y="150.15" width=".3" height="11.7" style="fill:#263238;"></rect><polygon points="318.15 215.75 318.15 210.15 317.85 210.15 317.85 215.75 317.85 216 318.15 216 318.15 215.75" style="fill:#263238;"></polygon><rect x="341.85" y="186.15" width=".3" height="11.7" style="fill:#263238;"></rect><rect x="341.85" y="144.25" width=".3" height="5.6" style="fill:#263238;"></rect><rect x="341.85" y="162.15" width=".3" height="11.7" style="fill:#263238;"></rect><rect x="341.85" y="198.15" width=".3" height="11.7" style="fill:#263238;"></rect><rect x="341.85" y="150.15" width=".3" height="11.7" style="fill:#263238;"></rect><rect x="341.85" y="174.15" width=".3" height="11.7" style="fill:#263238;"></rect><polygon points="341.85 215.75 341.85 216 342.15 216 342.15 215.75 342.15 210.15 341.85 210.15 341.85 215.75" style="fill:#263238;"></polygon><path d="M305.85,210.15v-.3h-11.94l-.02,.3h11.96Z" style="fill:#263238;"></path><polygon points="359.75 209.85 354.15 209.85 354.15 210.15 359.75 210.15 360 210.15 360 209.85 359.75 209.85" style="fill:#263238;"></polygon><polygon points="318.15 210.15 329.85 210.15 329.85 209.85 318.15 209.85 317.85 209.85 306.15 209.85 306.15 210.15 317.85 210.15 318.15 210.15" style="fill:#263238;"></polygon><polygon points="342.15 210.15 353.85 210.15 353.85 209.85 342.15 209.85 341.85 209.85 330.15 209.85 330.15 210.15 341.85 210.15 342.15 210.15" style="fill:#263238;"></polygon><path d="M295.41,185.85l-.02,.3h10.46v-.3h-10.44Z" style="fill:#263238;"></path><polygon points="360 186.15 360 185.85 359.75 185.85 354.15 185.85 354.15 186.15 359.75 186.15 360 186.15" style="fill:#263238;"></polygon><polygon points="318.15 186.15 329.85 186.15 329.85 185.85 318.15 185.85 317.85 185.85 306.15 185.85 306.15 186.15 317.85 186.15 318.15 186.15" style="fill:#263238;"></polygon><polygon points="342.15 186.15 353.85 186.15 353.85 185.85 342.15 185.85 341.85 185.85 330.15 185.85 330.15 186.15 341.85 186.15 342.15 186.15" style="fill:#263238;"></polygon><path d="M296.69,161.85v.3h9.16v-.3h-9.16Z" style="fill:#263238;"></path><polygon points="360 162.15 360 161.85 359.75 161.85 354.15 161.85 354.15 162.15 359.75 162.15 360 162.15" style="fill:#263238;"></polygon><polygon points="318.15 162.15 329.85 162.15 329.85 161.85 318.15 161.85 317.85 161.85 306.15 161.85 306.15 162.15 317.85 162.15 318.15 162.15" style="fill:#263238;"></polygon><polygon points="342.15 162.15 353.85 162.15 353.85 161.85 342.15 161.85 341.85 161.85 330.15 161.85 330.15 162.15 341.85 162.15 342.15 162.15" style="fill:#263238;"></polygon><path d="M294.67,197.85l-.02,.3h11.2v-.3h-11.18Z" style="fill:#263238;"></path><polygon points="360 198.15 360 197.85 359.75 197.85 354.15 197.85 354.15 198.15 359.75 198.15 360 198.15" style="fill:#263238;"></polygon><polygon points="318.15 198.15 329.85 198.15 329.85 197.85 318.15 197.85 317.85 197.85 306.15 197.85 306.15 198.15 317.85 198.15 318.15 198.15" style="fill:#263238;"></polygon><polygon points="342.15 198.15 353.85 198.15 353.85 197.85 342.15 197.85 341.85 197.85 330.15 197.85 330.15 198.15 341.85 198.15 342.15 198.15" style="fill:#263238;"></polygon><path d="M296.1,173.85l-.02,.3h9.77v-.3h-9.75Z" style="fill:#263238;"></path><polygon points="360 174.15 360 173.85 359.75 173.85 354.15 173.85 354.15 174.15 359.75 174.15 360 174.15" style="fill:#263238;"></polygon><polygon points="318.15 174.15 329.85 174.15 329.85 173.85 318.15 173.85 317.85 173.85 306.15 173.85 306.15 174.15 317.85 174.15 318.15 174.15" style="fill:#263238;"></polygon><polygon points="342.15 174.15 353.85 174.15 353.85 173.85 342.15 173.85 341.85 173.85 330.15 173.85 330.15 174.15 341.85 174.15 342.15 174.15" style="fill:#263238;"></polygon><polygon points="359.75 150.15 360 150.15 360 149.85 359.75 149.85 354.15 149.85 354.15 150.15 359.75 150.15" style="fill:#263238;"></polygon><path d="M297.34,149.85c-.02,.1-.05,.2-.07,.3h8.58v-.3h-8.51Z" style="fill:#263238;"></path><polygon points="317.85 150.15 318.15 150.15 329.85 150.15 329.85 149.85 318.15 149.85 317.85 149.85 306.15 149.85 306.15 150.15 317.85 150.15" style="fill:#263238;"></polygon><polygon points="342.15 150.15 353.85 150.15 353.85 149.85 342.15 149.85 341.85 149.85 330.15 149.85 330.15 150.15 341.85 150.15 342.15 150.15" style="fill:#263238;"></polygon><polygon points="305.85 215.75 305.85 216 306.15 216 306.15 215.75 306.15 210.15 306.15 209.85 306.15 198.15 306.15 197.85 306.15 186.15 306.15 185.85 306.15 174.15 306.15 173.85 306.15 162.15 306.15 161.85 306.15 150.15 306.15 149.85 306.15 144.25 305.85 144.25 305.85 149.85 305.85 150.15 305.85 161.85 305.85 162.15 305.85 173.85 305.85 174.15 305.85 185.85 305.85 186.15 305.85 197.85 305.85 198.15 305.85 209.85 305.85 210.15 305.85 215.75" style="fill:#263238;"></polygon><polygon points="329.85 162.15 329.85 173.85 329.85 174.15 329.85 185.85 329.85 186.15 329.85 197.85 329.85 198.15 329.85 209.85 329.85 210.15 329.85 215.75 329.85 216 330.15 216 330.15 215.75 330.15 210.15 330.15 209.85 330.15 198.15 330.15 197.85 330.15 186.15 330.15 185.85 330.15 174.15 330.15 173.85 330.15 162.15 330.15 161.85 330.15 150.15 330.15 149.85 330.15 144.25 329.85 144.25 329.85 149.85 329.85 150.15 329.85 161.85 329.85 162.15" style="fill:#263238;"></polygon><polygon points="353.85 161.85 353.85 162.15 353.85 173.85 353.85 174.15 353.85 185.85 353.85 186.15 353.85 197.85 353.85 198.15 353.85 209.85 353.85 210.15 353.85 215.75 353.85 216 354.15 216 354.15 215.75 354.15 210.15 354.15 209.85 354.15 198.15 354.15 197.85 354.15 186.15 354.15 185.85 354.15 174.15 354.15 173.85 354.15 162.15 354.15 161.85 354.15 150.15 354.15 149.85 354.15 144.25 353.85 144.25 353.85 149.85 353.85 150.15 353.85 161.85" style="fill:#263238;"></polygon><rect x="317.85" y="144" width=".3" height=".25" style="fill:#263238;"></rect><rect x="341.85" y="144" width=".3" height=".25" style="fill:#263238;"></rect><rect x="305.85" y="144" width=".3" height=".25" style="fill:#263238;"></rect><rect x="329.85" y="144" width=".3" height=".25" style="fill:#263238;"></rect><rect x="353.85" y="144" width=".3" height=".25" style="fill:#263238;"></rect><rect x="293.85" y="216.25" width=".3" height="5.6" style="fill:#263238;"></rect><rect x="289.01" y="226.99" width="9.97" height=".3" transform="translate(62.88 518.01) rotate(-89.22)" style="fill:#263238;"></rect><rect x="312.85" y="227.15" width="10.29" height=".3" transform="translate(86.39 542.17) rotate(-89.22)" style="fill:#263238;"></rect><rect x="317.85" y="216.25" width=".3" height="5.6" style="fill:#263238;"></rect><rect x="341.85" y="216.25" width=".3" height="5.6" style="fill:#263238;"></rect><rect x="336.69" y="227.31" width="10.61" height=".3" transform="translate(110.02 566.4) rotate(-89.24)" style="fill:#263238;"></rect><polygon points="318.15 221.85 317.85 221.85 306.15 221.85 306.15 222.15 317.85 222.15 318.15 222.15 329.85 222.15 329.85 221.85 318.15 221.85" style="fill:#263238;"></polygon><path d="M294.15,221.85h-1.04c0,.1-.01,.2-.02,.3h12.75v-.3h-11.7Z" style="fill:#263238;"></path><polygon points="342.15 221.85 341.85 221.85 330.15 221.85 330.15 222.15 341.85 222.15 342.15 222.15 353.85 222.15 353.85 221.85 342.15 221.85" style="fill:#263238;"></polygon><polygon points="359.75 221.85 354.15 221.85 354.15 222.15 359.75 222.15 360 222.15 360 221.85 359.75 221.85" style="fill:#263238;"></polygon><polygon points="306.15 216.25 305.85 216.25 305.85 221.85 305.85 222.15 305.85 232.28 306.15 232.29 306.15 222.15 306.15 221.85 306.15 216.25" style="fill:#263238;"></polygon><polygon points="330.15 216.25 329.85 216.25 329.85 221.85 329.85 222.15 329.85 232.6 330.15 232.61 330.15 222.15 330.15 221.85 330.15 216.25" style="fill:#263238;"></polygon><polygon points="354.15 216.25 353.85 216.25 353.85 221.85 353.85 222.15 353.85 232.92 354.15 232.93 354.15 222.15 354.15 221.85 354.15 216.25" style="fill:#263238;"></polygon><rect x="293.85" y="216" width=".3" height=".25" style="fill:#263238;"></rect><rect x="317.85" y="216" width=".3" height=".25" style="fill:#263238;"></rect><rect x="341.85" y="216" width=".3" height=".25" style="fill:#263238;"></rect><rect x="305.85" y="216" width=".3" height=".25" style="fill:#263238;"></rect><rect x="329.85" y="216" width=".3" height=".25" style="fill:#263238;"></rect><rect x="353.85" y="216" width=".3" height=".25" style="fill:#263238;"></rect></g></g><g><line x1="398.79" y1="147.35" x2="390.43" y2="160.26" style="fill:none; stroke:#263238; stroke-linejoin:round;"></line><path d="M398.03,142.29s-3.8,3.54-4.81,11.65" style="fill:none; stroke:#263238; stroke-linejoin:round;"></path></g><path d="M372.41,104.35l6.31,10.14s-5.41,10.36-7.44,13.52-16.45,12.17-17.35,12.62c-.9,.45-5.63-11.49-5.63-11.49,0,0,16.45-8.34,24.11-24.78Z" style="fill:#fff; stroke:#263238; stroke-linejoin:round;"></path><path d="M307.44,183.41c-1.41,16.16-3.78,41.04-5.56,48.02" style="fill:none; stroke:#263238; stroke-linejoin:round;"></path><path d="M308.64,169.01s-.25,3.22-.67,8.22" style="fill:none; stroke:#263238; stroke-linejoin:round;"></path><path d="M344.24,126.2l-5.18,10.36s-6.08-3.83-6.98-11.94c-.9-8.11,6.08-14.19,6.08-14.19l6.08,15.77Z" style="fill:#fff; stroke:#263238; stroke-linejoin:round;"></path><path d="M335.46,103.9s2.25,7.44,2.48,9.69c.23,2.25,1.58,6.76,6.31,12.62,4.73,5.86,11.49,1.13,17.12-6.08,5.63-7.21,7.66-11.27,7.66-11.27l-1.19-20.42s-13.45,13.21-32.38,15.46Z" style="fill:#fff; stroke:#263238; stroke-linejoin:round;"></path><g><path d="M330.87,50.9s-4.7,8.93-4.94,11.99c-.24,3.06,0,3.76,0,5.41s-2.82,9.4-2.82,16.22,1.41,16.22,2.82,19.04c1.41,2.82,6.35,4.23,10.34,3.53,4-.71,11.28-3.29,17.86-5.17,6.58-1.88,16.69-12.22,16.69-12.22,0,0,5.17-.94,8.23-7.05,3.06-6.11-.24-11.75-.24-11.75l-4.94-4.23s-6.35-2.59-6.58-5.64c-.23-3.06,7.29-10.11-1.41-15.51-8.7-5.41-29.61-3.06-35.02,5.41Z" style="fill:#fff; stroke:#263238; stroke-linejoin:round;"></path><path d="M368.47,75.34s-4.23,.71-4.7-1.65c-.47-2.35,.47-3.29-.47-4.94-.94-1.65-8.23-3.76-8.46-7.52s7.99-7.76,5.64-10.11c-2.35-2.35-6.82-5.41-15.98-3.53-9.17,1.88-8.7,4.7-13.63,3.29-4.94-1.41-1.65-7.05-1.65-7.05,0,0-5.64,3.53-3.76-3.06,1.88-6.58,11.75-11.75,16.92-11.75s10.34,1.41,10.34,1.41c0,0,11.28-2.82,19.04,2.12,7.76,4.94,6.11,9.64,5.41,10.58-.71,.94-1.18,2.59-1.18,2.59,0,0,8.46,.71,9.87,8.93s-2.35,10.11-3.29,11.05c-.94,.94-1.41,4.47-1.41,4.47l-.94,4.23s-5.88-4.94-8.23-2.59c-2.35,2.35-3.53,3.53-3.53,3.53Z" style="fill:#263238; stroke:#263238; stroke-linejoin:round;"></path><path d="M330.63,66.65s1.18,.47,.47,3.53c-.71,3.06-6.35,10.58-5.41,12.69,.94,2.12,9.3,3.7,11.65,2.52,2.35-1.18,2.66-4.74,2.66-4.74" style="fill:none; stroke:#263238; stroke-linejoin:round;"></path><path d="M325.93,103.55c-1.23-2.45-2.45-9.88-2.75-16.26,1.37-1.25,3.89-3.06,3.89-3.06,0,0,4.85,1.04,7.39,1.39,2.54,.35,4.27-1.15,4.27-1.15,0,0,6.12,1.5,8.32,4.5,1.81,2.48,.87,11,.03,15.08-4.26,1.33-8.22,2.57-10.81,3.03-4,.7-8.93-.71-10.34-3.53Z" style="fill:#263238; stroke:#263238; stroke-linejoin:round;"></path><path d="M331.92,86.31s11.32,1.62,12.59,2.77c1.27,1.15,.69,5.78,.12,8.66s-7.28,5.66-8.55,4.62c-1.27-1.04-.81-5.89-1.39-6.35-.58-.46-3.7-1.62-4.16,0-.46,1.62,.35,6.12-.46,6.12s-2.77-2.89-4.16-7.51c-1.39-4.62-.58-6.58,1.15-7.28,1.73-.69,4.85-1.04,4.85-1.04Z" style="fill:#fff; stroke:#263238; stroke-linejoin:round;"></path><path d="M342.1,89.82s-7.7,2.96-14.61,.2" style="fill:none; stroke:#263238; stroke-linejoin:round;"></path><path d="M340.12,73.08c0,1.05,.54,1.91,1.21,1.91s1.21-.85,1.21-1.91-.54-1.91-1.21-1.91-1.21,.85-1.21,1.91Z" style="fill:#263238;"></path><ellipse cx="328.51" cy="71.06" rx="1.21" ry="1.91" style="fill:#263238;"></ellipse><path d="M335.85,68.29s5.31-.92,11.43,.12c4.09,.69,5.66,1.85,5.66,1.85l-1.04,7.62s-1.16,1.04-7.39,.69-7.51-.69-8.78-2.08c-1.27-1.39,.12-8.2,.12-8.2Z" style="fill:none; stroke:#263238; stroke-linejoin:round;"></path><path d="M331.11,68.29s.21-2.01-6-2.17c-4.15-.11-5.91,.72-5.91,.72l-.45,7.68s.97,1.01,7.12,2.1c2.47,.44,2.98-1.66,3.97-3.26,1.85-3,1.27-5.08,1.27-5.08Z" style="fill:none; stroke:#263238; stroke-linejoin:round;"></path><path d="M335.85,68.29s-3.12-1.5-4.74,0" style="fill:none; stroke:#263238; stroke-linejoin:round;"></path><polygon points="352.94 70.25 371.08 72.1 369.81 73.26 357.79 73.03 356.29 73.83 352.6 73.72 352.94 70.25" style="fill:#263238; stroke:#263238; stroke-linejoin:round;"></polygon><path d="M349.94,67.25s-1.85-2.43-5.43-3.35c-3.58-.92-6.58-.12-6.47,.81" style="fill:none; stroke:#263238; stroke-linejoin:round;"></path><path d="M331.23,64.83s-1.62-2.77-3.93-2.19" style="fill:none; stroke:#263238; stroke-linejoin:round;"></path></g><path d="M374.09,73.79l7.66,11.96c.66,1.04,.42,2.41-.56,3.16l-26.46,20.16c-1.18,.9-2.89,.5-3.55-.83l-7.05-14.22c-.52-1.05-.19-2.33,.77-3l25.86-17.9c1.1-.76,2.62-.46,3.34,.67Z" style="fill:#92E3A9; stroke:#263238; stroke-linejoin:round;"></path><g><path d="M364.58,132.28s-.15-6.81,.3-8.44c.44-1.63,11.85-22.37,12.15-23.11,.3-.74-2.07-5.48-2.81-6.37-.74-.89-3.55-5.92-3.85-7.55-.3-1.63-2.52-.3-2.52,1.63s1.48,7.26,2.22,8.15c.74,.89,1.33,3.26,1.33,3.26l-2.96,3.7s-2.96-8.89-3.11-9.48c-.15-.59-5.18-3.41-6.37-4.44-1.18-1.04-1.48-1.19-2.37-.74-.89,.44-1.33,1.78-1.33,1.78,0,0-.84-.19-1.73,.55-.89,.74-.71,1.77-.86,2.37l.07,1.38s-1.48-.3-2.22,.44-.74,.59-.74,.59c0,0-.89,1.04,.3,1.93s3.41,2.19,4.08,3.98-2.89,10.53-4.52,16.01c-1.63,5.48-2.81,10.52-1.48,12.89s4.44,7.85,4.44,7.85l12-6.37Z" style="fill:#fff; stroke:#263238; stroke-linejoin:round;"></path><path d="M352.73,94.96s6.07,5.18,6.37,6.07c.3,.89,.19,4.88,.19,4.88" style="fill:none; stroke:#263238; stroke-linejoin:round;"></path><path d="M355.25,90.66s6.52,5.63,6.67,6.52c.15,.89,2.01,8.03,2.01,8.03" style="fill:none; stroke:#263238; stroke-linejoin:round;"></path><line x1="370.11" y1="107.04" x2="368.43" y2="103.55" style="fill:none; stroke:#263238; stroke-linejoin:round;"></line></g><path d="M412.74,198.53c-4.73,5.18-18.7,24.11-21.86,24.11s-7.66-4.73-16.45-20.05-18.25-48.22-18.25-48.22l-7.21-17.12,19.38-10.14s4.06,9.01,4.06,9.69,36.73,48.22,36.73,48.22" style="fill:#92E3A9; stroke:#263238; stroke-linejoin:round;"></path><g><rect x="378.15" y="174.15" width="11.7" height="11.7" style="fill:none;"></rect><rect x="366.15" y="162.15" width="11.7" height="11.7" style="fill:none;"></rect><rect x="378.15" y="162.15" width="11.7" height="11.7" style="fill:none;"></rect><rect x="366.15" y="150.15" width="11.7" height="11.7" style="fill:none;"></rect><rect x="378.15" y="186.15" width="11.7" height="11.7" style="fill:none;"></rect><rect x="390.15" y="186.15" width="11.7" height="11.7" style="fill:none;"></rect><rect x="390.15" y="198.15" width="11.7" height="11.7" style="fill:none;"></rect><g><polygon points="366.15 128.26 365.85 128.42 365.85 137.85 366.15 137.85 366.15 128.26" style="fill:#263238;"></polygon><polygon points="366.15 143.75 366.15 138.15 365.85 138.15 365.85 143.75 365.85 144 366.15 144 366.15 143.75" style="fill:#263238;"></polygon><path d="M373.32,138.15c-.08-.11-.15-.2-.22-.3h-12.86v.3h13.07Z" style="fill:#263238;"></path><rect x="360" y="137.85" width=".25" height=".3" style="fill:#263238;"></rect><rect x="365.85" y="144.25" width=".3" height="5.6" style="fill:#263238;"></rect><rect x="365.85" y="150.15" width=".3" height="11.7" style="fill:#263238;"></rect><path d="M365.85,183.4c.1,.26,.2,.53,.3,.79v-10.04h-.3v9.25Z" style="fill:#263238;"></path><rect x="365.85" y="162.15" width=".3" height="11.7" style="fill:#263238;"></rect><path d="M390.15,160.35l-.3-.39v1.9h.3v-1.5Z" style="fill:#263238;"></path><polygon points="389.85 215.75 389.85 216 390.15 216 390.15 215.75 390.15 210.15 389.85 210.15 389.85 215.75" style="fill:#263238;"></polygon><rect x="389.85" y="186.15" width=".3" height="11.7" style="fill:#263238;"></rect><rect x="389.85" y="198.15" width=".3" height="11.7" style="fill:#263238;"></rect><rect x="389.85" y="174.15" width=".3" height="11.7" style="fill:#263238;"></rect><rect x="389.85" y="162.15" width=".3" height="11.7" style="fill:#263238;"></rect><path d="M390.15,209.85h-11.38c.06,.1,.13,.2,.19,.3h22.89v-.3h-11.7Z" style="fill:#263238;"></path><path d="M403.18,210.15c.08-.1,.16-.2,.24-.3h-1.27v.3h1.03Z" style="fill:#263238;"></path><polygon points="378.15 185.85 378.15 186.15 389.85 186.15 390.15 186.15 401.85 186.15 401.85 185.85 390.15 185.85 389.85 185.85 378.15 185.85" style="fill:#263238;"></polygon><polygon points="409.44 186.15 409.36 185.85 402.15 185.85 402.15 186.15 409.44 186.15" style="fill:#263238;"></polygon><path d="M366.79,185.85c.04,.1,.08,.2,.12,.3h10.94v-.3h-11.06Z" style="fill:#263238;"></path><path d="M389.85,162.15h1.68l-.23-.3h-13.15v.3h11.7Z" style="fill:#263238;"></path><polygon points="377.85 162.15 377.85 161.85 366.15 161.85 365.85 161.85 360.25 161.85 360.25 162.15 365.85 162.15 366.15 162.15 377.85 162.15" style="fill:#263238;"></polygon><polygon points="401.85 198.15 401.85 197.85 390.15 197.85 389.85 197.85 378.15 197.85 378.15 198.15 389.85 198.15 390.15 198.15 401.85 198.15" style="fill:#263238;"></polygon><path d="M371.95,197.85c.05,.1,.1,.2,.15,.3h5.75v-.3h-5.9Z" style="fill:#263238;"></path><polygon points="412.64 198.15 412.56 197.85 402.15 197.85 402.15 198.15 412.64 198.15" style="fill:#263238;"></polygon><path d="M366.15,173.85h-3.75c.03,.1,.07,.2,.1,.3h15.35v-.3h-11.7Z" style="fill:#263238;"></path><path d="M378.15,173.85v.3h22.61l-.23-.3h-22.38Z" style="fill:#263238;"></path><polygon points="377.85 150.15 377.85 149.85 366.15 149.85 365.85 149.85 360.25 149.85 360.25 150.15 365.85 150.15 366.15 150.15 377.85 150.15" style="fill:#263238;"></polygon><path d="M382.35,150.15c-.08-.1-.15-.2-.23-.3h-3.97v.3h4.2Z" style="fill:#263238;"></path><path d="M378.15,186.15v-41.53c-.09-.13-.19-.24-.28-.37h-.02v64.11c.1,.16,.2,.33,.3,.49v-22.7Z" style="fill:#263238;"></path><path d="M402.15,197.85v-21.89c-.1-.13-.2-.26-.3-.39v36.2c.1-.12,.2-.24,.3-.36v-13.55Z" style="fill:#263238;"></path><rect x="360" y="161.85" width=".25" height=".3" style="fill:#263238;"></rect><rect x="360" y="149.85" width=".25" height=".3" style="fill:#263238;"></rect><rect x="365.85" y="144" width=".3" height=".25" style="fill:#263238;"></rect><path d="M377.85,144.22v.03h.02l-.02-.03Z" style="fill:#263238;"></path><rect x="389.85" y="216.25" width=".3" height="5.6" style="fill:#263238;"></rect><path d="M389.85,222.47c.1,.03,.2,.06,.3,.08v-.4h-.3v.32Z" style="fill:#263238;"></path><path d="M388.51,221.85c.18,.11,.36,.21,.53,.3h3.01c.13-.09,.28-.19,.42-.3h-3.97Z" style="fill:#263238;"></path><rect x="389.85" y="216" width=".3" height=".25" style="fill:#263238;"></rect><polygon points="349.23 137.85 349.36 138.15 353.85 138.15 353.85 137.85 349.23 137.85" style="fill:#263238;"></polygon><polygon points="359.75 137.85 354.15 137.85 354.15 138.15 359.75 138.15 360 138.15 360 137.85 359.75 137.85" style="fill:#263238;"></polygon><polygon points="354.15 134.54 353.85 134.69 353.85 137.85 353.85 138.15 353.85 143.75 353.85 144 354.15 144 354.15 143.75 354.15 138.15 354.15 137.85 354.15 134.54" style="fill:#263238;"></polygon><path d="M359.75,161.85h-1.29l.09,.3h1.45v-.3h-.25Z" style="fill:#263238;"></path><polygon points="359.75 149.85 354.28 149.85 354.41 150.15 359.75 150.15 360 150.15 360 149.85 359.75 149.85" style="fill:#263238;"></polygon><polygon points="353.85 148.82 354.15 149.53 354.15 144.25 353.85 144.25 353.85 148.82" style="fill:#263238;"></polygon><rect x="353.85" y="144" width=".3" height=".25" style="fill:#263238;"></rect></g></g></g></g><g id="freepik--Character_1--inject-57"><g><path d="M147.08,38.77s-2-2.54-8.54,.55c-6.54,3.09-9.63,15.27-12.54,23.26-2.91,8-10,9.45-11.99,21.08-2,11.63,12.9,22.17,28.53,26.17,15.63,4,33.44,1.27,38.16-3.45s6.72-6.54,6.72-6.54c0,0-1.45,5.82-.36,5.27,1.09-.55,4.91-3.09,7.27-15.45,2.36-12.36-2.91-22.17-2.91-22.17,0,0,7.63-1.27,5.82-8.91-1.82-7.63-10.36-18.72-27.44-23.26-17.08-4.54-21.63,1.27-22.72,3.45Z" style="fill:#263238; stroke:#263238; stroke-linecap:round; stroke-linejoin:round;"></path><g><path d="M183,227.83s.28-3.34,3.25-13.84c2.97-10.5,12.68-60.83,12.68-74.3s-23.38-17.63-24.57-18.82c-1.19-1.19-6.34-7.33-8.12-9.51-1.78-2.18-3.96-1.78-3.96-1.78,0,0-1.78,1.98-1.59,4.56s14.46,51.71,14.07,60.23-5.15,23.18-4.36,27.34c.79,4.16,3.57,27.14,3.57,27.14" style="fill:#92E3A9; stroke:#263238; stroke-linejoin:round;"></path><path d="M186.12,174.21c-.55,3.98-1.53,7.28-2.26,9.24" style="fill:none; stroke:#263238; stroke-linecap:round; stroke-linejoin:round;"></path><path d="M175.29,124.96s8.57,26.68,10.52,35.98c.61,2.91,.79,5.82,.71,8.56" style="fill:none; stroke:#263238; stroke-linecap:round; stroke-linejoin:round;"></path></g><g><g><path d="M178.92,229.04s-3.76-28.53-4.95-31.7c-1.19-3.17,8.52-10.5,8.72-17.63,.2-7.13-9.84-33.52-13.47-44.98-2.25-7.09-4.36-10.89-6.54-21-.73-3.38-.4-7.73-.4-7.73l-19.62-11.1s-1.59,4.95-3.17,9.11c-1.58,4.16-4.36,7.93-4.95,8.32s-8.52,2.97-8.52,2.97c0,0-2.58,78.07-3.76,93.32-1.19,15.26-2.58,21.4-2.58,21.4" style="fill:#fff; stroke:#263238; stroke-linecap:round; stroke-linejoin:round;"></path><g><line x1="142.94" y1="195.72" x2="164.04" y2="183.66" style="fill:none; stroke:#263238; stroke-linecap:round; stroke-linejoin:round;"></line><line x1="137.05" y1="199.09" x2="140.32" y2="197.22" style="fill:none; stroke:#263238; stroke-linecap:round; stroke-linejoin:round;"></line><line x1="148.45" y1="197.55" x2="167.73" y2="185.43" style="fill:none; stroke:#263238; stroke-linecap:round; stroke-linejoin:round;"></line></g></g><path d="M162.67,113.73c-.73-3.38-.4-7.73-.4-7.73l-19.62-11.1s-1.58,4.95-3.17,9.11c-1.59,4.16-4.36,7.93-4.95,8.32-.59,.4-8.52,2.97-8.52,2.97,0,0-.31,9.51-.77,22.53,1.6,2.54,8.31,10.75,27.92,10.75,7.9,0,14.03-2.6,18.67-6.03-1.03-2.99-1.94-5.68-2.62-7.84-2.25-7.09-4.36-10.89-6.54-21Z" style="fill:#fff; stroke:#263238; stroke-linecap:round; stroke-linejoin:round;"></path></g><g><path d="M95.3,230.43l.4-8.72s-2.77-2.97-3.96-6.74-9.11-24.97-10.5-31.5c-1.39-6.54-.2-41.61,1.78-50.72,1.98-9.11,27.94-15.85,28.53-17.63,.59-1.78,6.74-6.54,7.37-7.58,.63-1.04,11.65,5.2,11.65,5.2l-3.96,25.36s1.98,67.96,0,92.33" style="fill:#92E3A9; stroke:#263238; stroke-linejoin:round;"></path><path d="M115.65,123.77c1.74,4.08,4.01,10.11,4.23,14.32" style="fill:none; stroke:#263238; stroke-linecap:round; stroke-linejoin:round;"></path><path d="M113.62,119.33s.39,.79,.99,2.09" style="fill:none; stroke:#263238; stroke-linecap:round; stroke-linejoin:round;"></path><path d="M106.52,139.15s3.92,6.36,4.89,14.93" style="fill:none; stroke:#263238; stroke-linecap:round; stroke-linejoin:round;"></path></g><g><path d="M155.44,51.99s-3.13,6.78-8.08,10.17c-4.95,3.39-11.99,6.26-11.99,6.26,0,0,6.26,29.45,9.64,32.84,3.39,3.39,9.38,7.82,14.34,8.08,4.95,.26,10.03-5.81,12.63-9.2,2.61-3.39,6.91-15.04,7.96-18.43,1.04-3.39,1.82-16.68,1.82-16.68,0,0-21.11-2.09-26.33-13.03Z" style="fill:#fff; stroke:#263238; stroke-linecap:round; stroke-linejoin:round;"></path><path d="M159.87,87.44s4.17,3.65,5.47,2.61c1.3-1.04,1.04-8.34,1.04-8.34,0,0-.46-5.04-.16-6.26s1.36-2.42,1.36-2.42" style="fill:none; stroke:#263238; stroke-linecap:round; stroke-linejoin:round;"></path><path d="M165.02,95.44s-7.27,.45-11.97-4.54c0,0,2.12,6.66,4.7,6.97s7.27-2.42,7.27-2.42Z" style="fill:none; stroke:#263238; stroke-linecap:round; stroke-linejoin:round;"></path><path d="M160.64,70.5s-5.7-3.62-11.76-.42" style="fill:none; stroke:#263238; stroke-linecap:round; stroke-linejoin:round;"></path><path d="M169.26,72.87s6.66-2.57,9.24,1.06" style="fill:none; stroke:#263238; stroke-linecap:round; stroke-linejoin:round;"></path><ellipse cx="156.46" cy="75.67" rx="1.29" ry="2.35" style="fill:#263238;"></ellipse><path d="M174.79,78.63c0,1.3-.58,2.35-1.29,2.35s-1.29-1.05-1.29-2.35,.58-2.35,1.29-2.35,1.29,1.05,1.29,2.35Z" style="fill:#263238;"></path><path d="M158.43,78.39s-2.75,2.06-5.27,2.52" style="fill:none; stroke:#263238; stroke-linecap:round; stroke-linejoin:round;"></path><path d="M170.13,80s1.01,3.23,4.07,3.92" style="fill:none; stroke:#263238; stroke-linecap:round; stroke-linejoin:round;"></path></g><polygon points="124.98 71.61 136.98 101.84 150.3 94.79 138.11 64.94 124.98 71.61" style="fill:#92E3A9; stroke:#263238; stroke-linejoin:round;"></polygon><g><path d="M134.02,71.75s-13.46,13.63-13.95,16.25c-.49,2.63-1.15,18.55-1.15,19.53s6.89,22.49,6.89,22.49l-6.07,13.13,13.79,10.01,3.28-28.4s1.64-2.79,.16-8.04c-1.48-5.25-3.94-13.79-3.94-13.79l4.76-8.04s5.91-3.61,6.57-4.43c.66-.82,.66-1.31-.33-1.48-.98-.16-1.97,.33-2.46,.49-.49,.16-7.06,3.45-7.06,3.45l-3.61,2.13,3.78-6.4,7.55-6.07s1.97-.98,1.64-2.13-1.64-1.48-2.46-1.15-6.24,3.94-6.24,3.94l6.24-6.73s0-1.64-.66-2.13c-.66-.49-.98-.16-1.48,.16-.49,.33-9.36,8.37-9.36,8.37,0,0,6.4-9.03,6.73-9.85s-.98-3.61-2.63-1.31Z" style="fill:#fff; stroke:#263238; stroke-linecap:round; stroke-linejoin:round;"></path><polyline points="135.17 83.24 129.43 88.17 126.47 93.91" style="fill:none; stroke:#263238; stroke-linecap:round; stroke-linejoin:round;"></polyline><polyline points="129.92 82.92 124.01 88.5 122.37 92.93" style="fill:none; stroke:#263238; stroke-linecap:round; stroke-linejoin:round;"></polyline></g><path d="M84.01,193.38s10.11,30.91,13.47,31.9c3.37,.99,8.92-1.39,17.44-16.45s17.63-44.18,17.63-44.18l-18.43-12.48-25.96,31.31" style="fill:#92E3A9; stroke:#263238; stroke-linejoin:round;"></path><polygon points="119.87 138.1 140.48 152.36 132.75 168.41 111.55 151.97 119.87 138.1" style="fill:#fff; stroke:#263238; stroke-linecap:round; stroke-linejoin:round;"></polygon></g></g></svg>
